<?xml version="1.0" standalone="no"?>
<!DOCTYPE svg PUBLIC "-//W3C//DTD SVG 20010904//EN"
 "http://www.w3.org/TR/2001/REC-SVG-20010904/DTD/svg10.dtd">
<svg version="1.0" xmlns="http://www.w3.org/2000/svg"
 width="200.000000pt" height="200.000000pt" viewBox="0 0 200.000000 200.000000"
 preserveAspectRatio="xMidYMid meet">
<metadata>
Created by potrace 1.11, written by Peter Selinger 2001-2013
</metadata>
<g transform="translate(0.000000,200.000000) scale(0.100000,-0.100000)"
fill="#000000" stroke="none">
<path d="M535 1534 c-76 -29 -165 -112 -224 -208 -72 -119 -81 -200 -35 -288
30 -54 157 -189 229 -243 22 -17 50 -39 63 -51 l24 -21 -55 -26 c-63 -30 -135
-52 -142 -45 -3 3 -11 33 -18 68 -15 70 -26 80 -90 82 -92 1 -159 -37 -178
-103 -16 -50 -6 -81 39 -125 89 -87 197 -129 312 -121 195 15 410 151 410 259
0 37 -41 81 -153 167 -206 158 -231 200 -191 318 9 26 30 67 46 91 54 78 84
67 80 -31 -1 -34 -4 -72 -7 -85 -5 -29 29 -44 105 -44 112 0 176 55 166 144
-9 87 -84 192 -173 245 -54 31 -148 39 -208 17z"/>
<path d="M1159 1533 c-9 -2 -21 -14 -26 -26 -13 -27 -50 -176 -57 -229 -3 -21
-10 -57 -15 -80 -5 -24 -12 -61 -16 -83 -9 -64 -15 -95 -32 -175 -8 -41 -17
-88 -20 -105 -2 -16 -11 -55 -18 -85 -8 -30 -17 -82 -20 -115 l-7 -61 47 -43
c51 -47 116 -80 156 -81 33 0 46 28 60 128 5 43 12 87 14 100 2 13 7 53 10 90
4 37 10 70 14 74 3 4 33 9 66 13 76 7 130 13 178 19 44 6 43 20 8 -148 -12
-54 -21 -110 -21 -124 0 -51 136 -152 205 -152 34 0 50 53 70 225 8 73 19 156
31 230 3 17 16 80 30 140 28 124 25 109 58 233 15 51 26 101 26 111 0 18 -57
76 -103 105 -40 25 -102 45 -114 38 -22 -14 -52 -106 -68 -202 -3 -19 -8 -46
-10 -60 -10 -48 -14 -69 -20 -112 -4 -25 -10 -49 -13 -55 -4 -6 -36 -13 -72
-17 -229 -21 -213 -21 -207 0 17 56 66 244 72 277 7 36 5 41 -41 85 -49 47
-135 91 -165 85z"/>
</g>
</svg>
